<?xml version="1.0" standalone="no"?>
<!DOCTYPE svg PUBLIC "-//W3C//DTD SVG 20010904//EN"
 "http://www.w3.org/TR/2001/REC-SVG-20010904/DTD/svg10.dtd">
<svg version="1.0" xmlns="http://www.w3.org/2000/svg"
 width="96.000000pt" height="96.000000pt" viewBox="0 0 96.000000 96.000000"
 preserveAspectRatio="xMidYMid meet">

<g transform="translate(0.000000,96.000000) scale(0.100000,-0.100000)"
fill="#000000" stroke="none">
<path d="M459 724 c-37 -27 -117 -54 -162 -54 l-29 0 4 -132 c3 -123 5 -136
30 -179 22 -38 119 -123 184 -162 15 -9 160 102 188 145 37 55 46 96 46 214
l0 114 -28 0 c-43 0 -119 25 -162 54 l-38 25 -33 -25z m57 -5 c11 -18 92 -50
143 -58 l46 -6 0 -115 c0 -153 -16 -187 -125 -270 -44 -33 -82 -60 -86 -60
-23 0 -156 116 -181 157 -26 44 -28 58 -32 171 l-3 122 36 0 c42 0 139 34 156
55 15 18 36 19 46 4z"/>
<path d="M454 674 c-23 -14 -61 -29 -85 -33 l-44 -9 37 -1 c21 -1 52 8 73 20
42 25 52 19 58 -36 3 -36 4 -35 5 12 l2 52 53 -24 c28 -14 66 -24 82 -24 25 1
22 3 -14 10 -23 4 -62 19 -85 33 l-41 24 -41 -24z"/>
<path d="M312 532 c-2 -85 1 -109 18 -142 19 -38 78 -94 138 -132 l29 -18 69
52 c97 75 115 112 112 243 l-1 100 -6 -110 c-7 -130 -21 -160 -106 -224 -30
-23 -57 -41 -60 -41 -3 0 -6 57 -6 128 -1 81 -4 111 -8 82 -4 -25 -6 -82 -5
-128 l2 -83 -36 27 c-110 81 -125 108 -133 244 l-6 105 -1 -103z"/>
<path d="M485 557 c-4 -10 -5 -21 -1 -24 10 -10 18 4 13 24 -4 17 -4 17 -12 0z"/>
</g>
</svg>
